<?xml version="1.0" encoding="UTF-8" standalone="no"?>
<!DOCTYPE svg PUBLIC "-//W3C//DTD SVG 1.1//EN"
 "http://www.w3.org/Graphics/SVG/1.1/DTD/svg11.dtd">
<!-- Generated by graphviz version 2.38.0 (20140413.2041)
 -->
<!-- Title: %3 Pages: 1 -->
<svg width="1351pt" height="1363pt"
 viewBox="0.00 0.00 1351.00 1362.50" xmlns="http://www.w3.org/2000/svg" xmlns:xlink="http://www.w3.org/1999/xlink">
<g id="graph0" class="graph" transform="scale(1 1) rotate(0) translate(144 1218.5)">
<title>%3</title>
<polygon fill="white" stroke="none" points="-144,144 -144,-1218.5 1207,-1218.5 1207,144 -144,144"/>
<g id="clust1" class="cluster"><title>cluster_Conference 1</title>
<path fill="#e5f5fd" stroke="#aeb6be" d="M20,-531.5C20,-531.5 113,-531.5 113,-531.5 119,-531.5 125,-537.5 125,-543.5 125,-543.5 125,-1054.5 125,-1054.5 125,-1060.5 119,-1066.5 113,-1066.5 113,-1066.5 20,-1066.5 20,-1066.5 14,-1066.5 8,-1060.5 8,-1054.5 8,-1054.5 8,-543.5 8,-543.5 8,-537.5 14,-531.5 20,-531.5"/>
<text text-anchor="middle" x="51" y="-1052.9" font-family="Sans-Serif" font-size="12.00" fill="#2d3436">Conference 1</text>
</g>
<g id="clust2" class="cluster"><title>cluster_Conference 2</title>
<path fill="#e5f5fd" stroke="#aeb6be" d="M20,-168.5C20,-168.5 113,-168.5 113,-168.5 119,-168.5 125,-174.5 125,-180.5 125,-180.5 125,-511.5 125,-511.5 125,-517.5 119,-523.5 113,-523.5 113,-523.5 20,-523.5 20,-523.5 14,-523.5 8,-517.5 8,-511.5 8,-511.5 8,-180.5 8,-180.5 8,-174.5 14,-168.5 20,-168.5"/>
<text text-anchor="middle" x="51" y="-509.9" font-family="Sans-Serif" font-size="12.00" fill="#2d3436">Conference 2</text>
</g>
<g id="clust3" class="cluster"><title>cluster_Namespace &#39;jitsi&#39;</title>
<path fill="#e5f5fd" stroke="#aeb6be" d="M167,-171.5C167,-171.5 1043,-171.5 1043,-171.5 1049,-171.5 1055,-177.5 1055,-183.5 1055,-183.5 1055,-903.5 1055,-903.5 1055,-909.5 1049,-915.5 1043,-915.5 1043,-915.5 167,-915.5 167,-915.5 161,-915.5 155,-909.5 155,-903.5 155,-903.5 155,-183.5 155,-183.5 155,-177.5 161,-171.5 167,-171.5"/>
<text text-anchor="middle" x="207" y="-901.9" font-family="Sans-Serif" font-size="12.00" fill="#2d3436">Namespace &#39;jitsi&#39;</text>
</g>
<g id="clust4" class="cluster"><title>cluster_Jitsi Videobridge</title>
<path fill="#ebf3e7" stroke="#aeb6be" d="M175,-351.5C175,-351.5 423,-351.5 423,-351.5 429,-351.5 435,-357.5 435,-363.5 435,-363.5 435,-874.5 435,-874.5 435,-880.5 429,-886.5 423,-886.5 423,-886.5 175,-886.5 175,-886.5 169,-886.5 163,-880.5 163,-874.5 163,-874.5 163,-363.5 163,-363.5 163,-357.5 169,-351.5 175,-351.5"/>
<text text-anchor="middle" x="215" y="-872.9" font-family="Sans-Serif" font-size="12.00" fill="#2d3436">Jitsi Videobridge</text>
</g>
<!-- 8671a9aa648446dabf610fc60b27af3a -->
<g id="node1" class="node"><title>8671a9aa648446dabf610fc60b27af3a</title>
<image xlink:href="resources/globe.png" width="101px" height="101px" preserveAspectRatio="xMinYMin meet" x="16" y="-659"/>
<text text-anchor="middle" x="66.5" y="-543.6" font-family="Sans-Serif" font-size="13.00" fill="#2d3436">user</text>
</g>
<!-- b069144a3cf243638e7223d49532bd75 -->
<g id="node13" class="node"><title>b069144a3cf243638e7223d49532bd75</title>
<image xlink:href="C:\Users\wolfgang.moser\HPI-SchulCloud\jitsi-deployment\venv\lib\site-packages\resources/k8s/network\svc.png" width="101px" height="101px" preserveAspectRatio="xMinYMin meet" x="171" y="-659"/>
<text text-anchor="middle" x="221.5" y="-543.6" font-family="Sans-Serif" font-size="13.00" fill="#2d3436">jvb&#45;0</text>
</g>
<!-- 8671a9aa648446dabf610fc60b27af3a&#45;&gt;b069144a3cf243638e7223d49532bd75 -->
<g id="edge17" class="edge"><title>8671a9aa648446dabf610fc60b27af3a&#45;&gt;b069144a3cf243638e7223d49532bd75</title>
<path fill="none" stroke="#7b8894" d="M117.253,-585.667C117.253,-585.667 160.898,-585.667 160.898,-585.667"/>
<polygon fill="#7b8894" stroke="#7b8894" points="160.898,-589.167 170.898,-585.667 160.898,-582.167 160.898,-589.167"/>
</g>
<!-- bb5a5d6699354fc4bd39c2f7d88a9f6f -->
<g id="node2" class="node"><title>bb5a5d6699354fc4bd39c2f7d88a9f6f</title>
<image xlink:href="resources/globe.png" width="101px" height="101px" preserveAspectRatio="xMinYMin meet" x="16" y="-1019"/>
<text text-anchor="middle" x="66.5" y="-903.6" font-family="Sans-Serif" font-size="13.00" fill="#2d3436">user</text>
</g>
<!-- bb5a5d6699354fc4bd39c2f7d88a9f6f&#45;&gt;b069144a3cf243638e7223d49532bd75 -->
<g id="edge18" class="edge"><title>bb5a5d6699354fc4bd39c2f7d88a9f6f&#45;&gt;b069144a3cf243638e7223d49532bd75</title>
<path fill="none" stroke="#7b8894" d="M117.329,-968.5C131.937,-968.5 144,-968.5 144,-968.5 144,-968.5 144,-631.333 144,-631.333 144,-631.333 160.671,-631.333 160.671,-631.333"/>
<polygon fill="#7b8894" stroke="#7b8894" points="160.671,-634.833 170.671,-631.333 160.671,-627.833 160.671,-634.833"/>
</g>
<!-- 517bc6e201f742ea861023be18dc8987 -->
<g id="node3" class="node"><title>517bc6e201f742ea861023be18dc8987</title>
<image xlink:href="resources/globe.png" width="101px" height="101px" preserveAspectRatio="xMinYMin meet" x="16" y="-839"/>
<text text-anchor="middle" x="66.5" y="-723.6" font-family="Sans-Serif" font-size="13.00" fill="#2d3436">user</text>
</g>
<!-- 517bc6e201f742ea861023be18dc8987&#45;&gt;b069144a3cf243638e7223d49532bd75 -->
<g id="edge19" class="edge"><title>517bc6e201f742ea861023be18dc8987&#45;&gt;b069144a3cf243638e7223d49532bd75</title>
<path fill="none" stroke="#7b8894" d="M67,-719.829C67,-707.51 67,-698.5 67,-698.5 67,-698.5 222,-698.5 222,-698.5 222,-698.5 222,-687.171 222,-687.171"/>
<polygon fill="#7b8894" stroke="#7b8894" points="225.5,-687.171 222,-677.171 218.5,-687.171 225.5,-687.171"/>
</g>
<!-- 22890bffcf3140c3b6fb8a547d9e0bcd -->
<g id="node4" class="node"><title>22890bffcf3140c3b6fb8a547d9e0bcd</title>
<image xlink:href="resources/globe.png" width="101px" height="101px" preserveAspectRatio="xMinYMin meet" x="16" y="-296"/>
<text text-anchor="middle" x="66.5" y="-180.6" font-family="Sans-Serif" font-size="13.00" fill="#2d3436">user</text>
</g>
<!-- 20187907393c43f596731641088e5dad -->
<g id="node15" class="node"><title>20187907393c43f596731641088e5dad</title>
<image xlink:href="C:\Users\wolfgang.moser\HPI-SchulCloud\jitsi-deployment\venv\lib\site-packages\resources/k8s/network\svc.png" width="101px" height="101px" preserveAspectRatio="xMinYMin meet" x="171" y="-479"/>
<text text-anchor="middle" x="221.5" y="-363.6" font-family="Sans-Serif" font-size="13.00" fill="#2d3436">jvb&#45;1</text>
</g>
<!-- 22890bffcf3140c3b6fb8a547d9e0bcd&#45;&gt;20187907393c43f596731641088e5dad -->
<g id="edge20" class="edge"><title>22890bffcf3140c3b6fb8a547d9e0bcd&#45;&gt;20187907393c43f596731641088e5dad</title>
<path fill="none" stroke="#7b8894" d="M67,-314.382C67,-327.382 67,-337 67,-337 67,-337 222,-337 222,-337 222,-337 222,-349.618 222,-349.618"/>
<polygon fill="#7b8894" stroke="#7b8894" points="218.5,-349.618 222,-359.618 225.5,-349.618 218.5,-349.618"/>
</g>
<!-- 12047094cdf74d1e8a1e4e32e0fcaf64 -->
<g id="node5" class="node"><title>12047094cdf74d1e8a1e4e32e0fcaf64</title>
<image xlink:href="resources/globe.png" width="101px" height="101px" preserveAspectRatio="xMinYMin meet" x="16" y="-476"/>
<text text-anchor="middle" x="66.5" y="-360.6" font-family="Sans-Serif" font-size="13.00" fill="#2d3436">user</text>
</g>
<!-- 12047094cdf74d1e8a1e4e32e0fcaf64&#45;&gt;20187907393c43f596731641088e5dad -->
<g id="edge21" class="edge"><title>12047094cdf74d1e8a1e4e32e0fcaf64&#45;&gt;20187907393c43f596731641088e5dad</title>
<path fill="none" stroke="#7b8894" d="M117.253,-427C117.253,-427 160.898,-427 160.898,-427"/>
<polygon fill="#7b8894" stroke="#7b8894" points="160.898,-430.5 170.898,-427 160.898,-423.5 160.898,-430.5"/>
</g>
<!-- 64286e38429a4ceb8838198ed91c73c5 -->
<g id="node6" class="node"><title>64286e38429a4ceb8838198ed91c73c5</title>
<image xlink:href="resources/globe.png" width="101px" height="101px" preserveAspectRatio="xMinYMin meet" x="171" y="-119"/>
<text text-anchor="middle" x="221.5" y="-3.6" font-family="Sans-Serif" font-size="13.00" fill="#2d3436">all users</text>
</g>
<!-- 1c23022f6c214cf8ab047ab4a26ab202 -->
<g id="node7" class="node"><title>1c23022f6c214cf8ab047ab4a26ab202</title>
<image xlink:href="C:\Users\wolfgang.moser\HPI-SchulCloud\jitsi-deployment\venv\lib\site-packages\resources/k8s/network\ing.png" width="101px" height="101px" preserveAspectRatio="xMinYMin meet" x="326" y="-299"/>
<text text-anchor="middle" x="376.5" y="-183.6" font-family="Sans-Serif" font-size="13.00" fill="#2d3436">jitsi.messenger.schule</text>
</g>
<!-- 64286e38429a4ceb8838198ed91c73c5&#45;&gt;1c23022f6c214cf8ab047ab4a26ab202 -->
<g id="edge1" class="edge"><title>64286e38429a4ceb8838198ed91c73c5&#45;&gt;1c23022f6c214cf8ab047ab4a26ab202</title>
<path fill="none" stroke="#7b8894" d="M272.417,-68.5C317.767,-68.5 377,-68.5 377,-68.5 377,-68.5 377,-169.936 377,-169.936"/>
<polygon fill="#7b8894" stroke="#7b8894" points="373.5,-169.936 377,-179.936 380.5,-169.936 373.5,-169.936"/>
</g>
<!-- 2feddd7ad83341c7a62025394a9d9666 -->
<g id="node8" class="node"><title>2feddd7ad83341c7a62025394a9d9666</title>
<image xlink:href="C:\Users\wolfgang.moser\HPI-SchulCloud\jitsi-deployment\venv\lib\site-packages\resources/k8s/network\svc.png" width="101px" height="101px" preserveAspectRatio="xMinYMin meet" x="481" y="-299"/>
<text text-anchor="middle" x="531.5" y="-183.6" font-family="Sans-Serif" font-size="13.00" fill="#2d3436">web</text>
</g>
<!-- 1c23022f6c214cf8ab047ab4a26ab202&#45;&gt;2feddd7ad83341c7a62025394a9d9666 -->
<g id="edge2" class="edge"><title>1c23022f6c214cf8ab047ab4a26ab202&#45;&gt;2feddd7ad83341c7a62025394a9d9666</title>
<path fill="none" stroke="#7b8894" d="M427.253,-248.5C427.253,-248.5 470.898,-248.5 470.898,-248.5"/>
<polygon fill="#7b8894" stroke="#7b8894" points="470.898,-252 480.898,-248.5 470.898,-245 470.898,-252"/>
</g>
<!-- 5214445817c24f68a559046932f4b806 -->
<g id="node9" class="node"><title>5214445817c24f68a559046932f4b806</title>
<image xlink:href="C:\Users\wolfgang.moser\HPI-SchulCloud\jitsi-deployment\venv\lib\site-packages\resources/k8s/compute\pod.png" width="101px" height="101px" preserveAspectRatio="xMinYMin meet" x="636" y="-389"/>
<text text-anchor="middle" x="686.5" y="-273.6" font-family="Sans-Serif" font-size="13.00" fill="#2d3436">jitsi</text>
</g>
<!-- 2feddd7ad83341c7a62025394a9d9666&#45;&gt;5214445817c24f68a559046932f4b806 -->
<g id="edge3" class="edge"><title>2feddd7ad83341c7a62025394a9d9666&#45;&gt;5214445817c24f68a559046932f4b806</title>
<path fill="none" stroke="#7b8894" d="M582.253,-293.5C582.253,-293.5 625.898,-293.5 625.898,-293.5"/>
<polygon fill="#7b8894" stroke="#7b8894" points="625.898,-297 635.898,-293.5 625.898,-290 625.898,-297"/>
</g>
<!-- 5d976c95982a41e4ad543eee54379d33 -->
<g id="node10" class="node"><title>5d976c95982a41e4ad543eee54379d33</title>
<image xlink:href="C:\Users\wolfgang.moser\HPI-SchulCloud\jitsi-deployment\venv\lib\site-packages\resources/k8s/compute\rs.png" width="101px" height="101px" preserveAspectRatio="xMinYMin meet" x="791" y="-389"/>
<text text-anchor="middle" x="841.5" y="-273.6" font-family="Sans-Serif" font-size="13.00" fill="#2d3436">jitsi</text>
</g>
<!-- 5214445817c24f68a559046932f4b806&#45;&gt;5d976c95982a41e4ad543eee54379d33 -->
<g id="edge4" class="edge"><title>5214445817c24f68a559046932f4b806&#45;&gt;5d976c95982a41e4ad543eee54379d33</title>
<path fill="none" stroke="#7b8894" d="M747.253,-338.5C747.253,-338.5 790.898,-338.5 790.898,-338.5"/>
<polygon fill="#7b8894" stroke="#7b8894" points="747.253,-335 737.253,-338.5 747.253,-342 747.253,-335"/>
</g>
<!-- 04599f6339f34e7e9d9e0a47c4779ad2 -->
<g id="node11" class="node"><title>04599f6339f34e7e9d9e0a47c4779ad2</title>
<image xlink:href="C:\Users\wolfgang.moser\HPI-SchulCloud\jitsi-deployment\venv\lib\site-packages\resources/k8s/compute\deploy.png" width="101px" height="101px" preserveAspectRatio="xMinYMin meet" x="946" y="-389"/>
<text text-anchor="middle" x="996.5" y="-273.6" font-family="Sans-Serif" font-size="13.00" fill="#2d3436">jitsi</text>
</g>
<!-- 5d976c95982a41e4ad543eee54379d33&#45;&gt;04599f6339f34e7e9d9e0a47c4779ad2 -->
<g id="edge5" class="edge"><title>5d976c95982a41e4ad543eee54379d33&#45;&gt;04599f6339f34e7e9d9e0a47c4779ad2</title>
<path fill="none" stroke="#7b8894" d="M902.253,-338.5C902.253,-338.5 945.898,-338.5 945.898,-338.5"/>
<polygon fill="#7b8894" stroke="#7b8894" points="902.253,-335 892.253,-338.5 902.253,-342 902.253,-335"/>
</g>
<!-- 40a9e8378e124865ae768070e3f701c7 -->
<g id="node12" class="node"><title>40a9e8378e124865ae768070e3f701c7</title>
<image xlink:href="C:\Users\wolfgang.moser\HPI-SchulCloud\jitsi-deployment\venv\lib\site-packages\resources/k8s/network\svc.png" width="101px" height="101px" preserveAspectRatio="xMinYMin meet" x="481" y="-479"/>
<text text-anchor="middle" x="531.5" y="-363.6" font-family="Sans-Serif" font-size="13.00" fill="#2d3436">prosody</text>
</g>
<!-- 40a9e8378e124865ae768070e3f701c7&#45;&gt;5214445817c24f68a559046932f4b806 -->
<g id="edge6" class="edge"><title>40a9e8378e124865ae768070e3f701c7&#45;&gt;5214445817c24f68a559046932f4b806</title>
<path fill="none" stroke="#7b8894" d="M582.253,-383.5C582.253,-383.5 625.898,-383.5 625.898,-383.5"/>
<polygon fill="#7b8894" stroke="#7b8894" points="625.898,-387 635.898,-383.5 625.898,-380 625.898,-387"/>
</g>
<!-- 77b4654076cd44d28fc8af7f348da879 -->
<g id="node14" class="node"><title>77b4654076cd44d28fc8af7f348da879</title>
<image xlink:href="C:\Users\wolfgang.moser\HPI-SchulCloud\jitsi-deployment\venv\lib\site-packages\resources/k8s/compute\pod.png" width="101px" height="101px" preserveAspectRatio="xMinYMin meet" x="326" y="-659"/>
<text text-anchor="middle" x="376.5" y="-543.6" font-family="Sans-Serif" font-size="13.00" fill="#2d3436">jvb&#45;0</text>
</g>
<!-- b069144a3cf243638e7223d49532bd75&#45;&gt;77b4654076cd44d28fc8af7f348da879 -->
<g id="edge7" class="edge"><title>b069144a3cf243638e7223d49532bd75&#45;&gt;77b4654076cd44d28fc8af7f348da879</title>
<path fill="none" stroke="#7b8894" d="M272.253,-608.5C272.253,-608.5 315.898,-608.5 315.898,-608.5"/>
<polygon fill="#7b8894" stroke="#7b8894" points="315.898,-612 325.898,-608.5 315.898,-605 315.898,-612"/>
</g>
<!-- 77b4654076cd44d28fc8af7f348da879&#45;&gt;40a9e8378e124865ae768070e3f701c7 -->
<g id="edge8" class="edge"><title>77b4654076cd44d28fc8af7f348da879&#45;&gt;40a9e8378e124865ae768070e3f701c7</title>
<path fill="none" stroke="#7b8894" d="M394,-539.961C394,-523.882 394,-511.333 394,-511.333 394,-511.333 549,-511.333 549,-511.333 549,-511.333 549,-507.282 549,-507.282"/>
<polygon fill="#7b8894" stroke="#7b8894" points="552.5,-507.282 549,-497.282 545.5,-507.282 552.5,-507.282"/>
</g>
<!-- f7c1b4ea491049ae8e316dfcfedd5f86 -->
<g id="node19" class="node"><title>f7c1b4ea491049ae8e316dfcfedd5f86</title>
<image xlink:href="C:\Users\wolfgang.moser\HPI-SchulCloud\jitsi-deployment\venv\lib\site-packages\resources/k8s/compute\sts.png" width="101px" height="101px" preserveAspectRatio="xMinYMin meet" x="481" y="-659"/>
<text text-anchor="middle" x="531.5" y="-543.6" font-family="Sans-Serif" font-size="13.00" fill="#2d3436">jvb</text>
</g>
<!-- 77b4654076cd44d28fc8af7f348da879&#45;&gt;f7c1b4ea491049ae8e316dfcfedd5f86 -->
<g id="edge13" class="edge"><title>77b4654076cd44d28fc8af7f348da879&#45;&gt;f7c1b4ea491049ae8e316dfcfedd5f86</title>
<path fill="none" stroke="#7b8894" d="M437.253,-608.5C437.253,-608.5 480.898,-608.5 480.898,-608.5"/>
<polygon fill="#7b8894" stroke="#7b8894" points="437.253,-605 427.253,-608.5 437.253,-612 437.253,-605"/>
</g>
<!-- 0f3575ad82e14002ba2cccc44af879d2 -->
<g id="node16" class="node"><title>0f3575ad82e14002ba2cccc44af879d2</title>
<image xlink:href="C:\Users\wolfgang.moser\HPI-SchulCloud\jitsi-deployment\venv\lib\site-packages\resources/k8s/compute\pod.png" width="101px" height="101px" preserveAspectRatio="xMinYMin meet" x="326" y="-479"/>
<text text-anchor="middle" x="376.5" y="-363.6" font-family="Sans-Serif" font-size="13.00" fill="#2d3436">jvb&#45;1</text>
</g>
<!-- 20187907393c43f596731641088e5dad&#45;&gt;0f3575ad82e14002ba2cccc44af879d2 -->
<g id="edge9" class="edge"><title>20187907393c43f596731641088e5dad&#45;&gt;0f3575ad82e14002ba2cccc44af879d2</title>
<path fill="none" stroke="#7b8894" d="M272.253,-428.5C272.253,-428.5 315.898,-428.5 315.898,-428.5"/>
<polygon fill="#7b8894" stroke="#7b8894" points="315.898,-432 325.898,-428.5 315.898,-425 315.898,-432"/>
</g>
<!-- 0f3575ad82e14002ba2cccc44af879d2&#45;&gt;40a9e8378e124865ae768070e3f701c7 -->
<g id="edge10" class="edge"><title>0f3575ad82e14002ba2cccc44af879d2&#45;&gt;40a9e8378e124865ae768070e3f701c7</title>
<path fill="none" stroke="#7b8894" d="M427.253,-405.667C427.253,-405.667 470.898,-405.667 470.898,-405.667"/>
<polygon fill="#7b8894" stroke="#7b8894" points="470.898,-409.167 480.898,-405.667 470.898,-402.167 470.898,-409.167"/>
</g>
<!-- 0f3575ad82e14002ba2cccc44af879d2&#45;&gt;f7c1b4ea491049ae8e316dfcfedd5f86 -->
<g id="edge14" class="edge"><title>0f3575ad82e14002ba2cccc44af879d2&#45;&gt;f7c1b4ea491049ae8e316dfcfedd5f86</title>
<path fill="none" stroke="#7b8894" d="M360,-507.039C360,-507.039 360,-525.667 360,-525.667 360,-525.667 515,-525.667 515,-525.667 515,-525.667 515,-531.34 515,-539.718"/>
<polygon fill="#7b8894" stroke="#7b8894" points="363.5,-507.039 360,-497.039 356.5,-507.039 363.5,-507.039"/>
</g>
<!-- 2a10b90dc4b8447cb933e169e7618e60 -->
<g id="node17" class="node"><title>2a10b90dc4b8447cb933e169e7618e60</title>
<image xlink:href="C:\Users\wolfgang.moser\HPI-SchulCloud\jitsi-deployment\venv\lib\site-packages\resources/k8s/network\svc.png" width="101px" height="101px" preserveAspectRatio="xMinYMin meet" x="171" y="-839"/>
<text text-anchor="middle" x="221.5" y="-723.6" font-family="Sans-Serif" font-size="13.00" fill="#2d3436">jvb&#45;2</text>
</g>
<!-- dc28c7dc326b45d684cb1b681af96c91 -->
<g id="node18" class="node"><title>dc28c7dc326b45d684cb1b681af96c91</title>
<image xlink:href="C:\Users\wolfgang.moser\HPI-SchulCloud\jitsi-deployment\venv\lib\site-packages\resources/k8s/compute\pod.png" width="101px" height="101px" preserveAspectRatio="xMinYMin meet" x="326" y="-839"/>
<text text-anchor="middle" x="376.5" y="-723.6" font-family="Sans-Serif" font-size="13.00" fill="#2d3436">jvb&#45;2</text>
</g>
<!-- 2a10b90dc4b8447cb933e169e7618e60&#45;&gt;dc28c7dc326b45d684cb1b681af96c91 -->
<g id="edge11" class="edge"><title>2a10b90dc4b8447cb933e169e7618e60&#45;&gt;dc28c7dc326b45d684cb1b681af96c91</title>
<path fill="none" stroke="#7b8894" d="M272.253,-788.5C272.253,-788.5 315.898,-788.5 315.898,-788.5"/>
<polygon fill="#7b8894" stroke="#7b8894" points="315.898,-792 325.898,-788.5 315.898,-785 315.898,-792"/>
</g>
<!-- dc28c7dc326b45d684cb1b681af96c91&#45;&gt;40a9e8378e124865ae768070e3f701c7 -->
<g id="edge12" class="edge"><title>dc28c7dc326b45d684cb1b681af96c91&#45;&gt;40a9e8378e124865ae768070e3f701c7</title>
<path fill="none" stroke="#7b8894" d="M427.329,-765.667C441.937,-765.667 454,-765.667 454,-765.667 454,-765.667 454,-451.333 454,-451.333 454,-451.333 470.671,-451.333 470.671,-451.333"/>
<polygon fill="#7b8894" stroke="#7b8894" points="470.671,-454.833 480.671,-451.333 470.671,-447.833 470.671,-454.833"/>
</g>
<!-- dc28c7dc326b45d684cb1b681af96c91&#45;&gt;f7c1b4ea491049ae8e316dfcfedd5f86 -->
<g id="edge15" class="edge"><title>dc28c7dc326b45d684cb1b681af96c91&#45;&gt;f7c1b4ea491049ae8e316dfcfedd5f86</title>
<path fill="none" stroke="#7b8894" d="M437.417,-811.333C437.417,-811.333 532,-811.333 532,-811.333 532,-811.333 532,-736.014 532,-677.17"/>
<polygon fill="#7b8894" stroke="#7b8894" points="437.417,-807.833 427.417,-811.333 437.416,-814.833 437.417,-807.833"/>
</g>
<!-- 0b7c5bc8553541c59f48624df5e771f3 -->
<g id="node20" class="node"><title>0b7c5bc8553541c59f48624df5e771f3</title>
<image xlink:href="C:\Users\wolfgang.moser\HPI-SchulCloud\jitsi-deployment\venv\lib\site-packages\resources/k8s/clusterconfig\hpa.png" width="101px" height="101px" preserveAspectRatio="xMinYMin meet" x="636" y="-659"/>
<text text-anchor="middle" x="686.5" y="-543.6" font-family="Sans-Serif" font-size="13.00" fill="#2d3436">hpa</text>
</g>
<!-- f7c1b4ea491049ae8e316dfcfedd5f86&#45;&gt;0b7c5bc8553541c59f48624df5e771f3 -->
<g id="edge16" class="edge"><title>f7c1b4ea491049ae8e316dfcfedd5f86&#45;&gt;0b7c5bc8553541c59f48624df5e771f3</title>
<path fill="none" stroke="#7b8894" d="M592.253,-608.5C592.253,-608.5 635.898,-608.5 635.898,-608.5"/>
<polygon fill="#7b8894" stroke="#7b8894" points="592.253,-605 582.253,-608.5 592.253,-612 592.253,-605"/>
</g>
<!-- 20479b435da249328aee8cc19983df73 -->
<g id="node21" class="node"><title>20479b435da249328aee8cc19983df73</title>
<image xlink:href="C:\Users\wolfgang.moser\HPI-SchulCloud\jitsi-deployment\venv\lib\site-packages\resources/k8s/group\ns.png" width="101px" height="101px" preserveAspectRatio="xMinYMin meet" x="171" y="-299"/>
<text text-anchor="middle" x="221.5" y="-183.6" font-family="Sans-Serif" font-size="13.00" fill="#2d3436">jitsi</text>
</g>
</g>
</svg>
